Coordinates
version=1
nRows=8
nColumns=36
inDegrees=yes

Units are S.I. units (second, meters, Newtons, ...)
If the header above contains a line with 'inDegrees', this indicates whether rotational values are in degrees (yes) or radians (no).

endheader
time	pelvis_tilt	pelvis_list	pelvis_rotation	pelvis_tx	pelvis_ty	pelvis_tz	hip_flexion_r	hip_adduction_r	hip_rotation_r	knee_angle_r	knee_angle_r_beta	ankle_angle_r	subtalar_angle_r	mtp_angle_r	hip_flexion_l	hip_adduction_l	hip_rotation_l	knee_angle_l	knee_angle_l_beta	ankle_angle_l	subtalar_angle_l	mtp_angle_l	lumbar_extension	lumbar_bending	lumbar_rotation	arm_flex_r	arm_add_r	arm_rot_r	elbow_flex_r	pro_sup_r	arm_flex_l	arm_add_l	arm_rot_l	elbow_flex_l	pro_sup_l
      8.20000000	     -3.50583531	      1.10075765	     -3.34264738	     -0.02207349	      0.93767772	     -0.04771461	      1.98952129	     -2.05354566	     -7.24850912	      0.46913769	      0.00818800	      0.97954621	     -7.29993694	     -7.49999987	      1.22137766	     -2.56406287	     -3.51192917	      0.64693041	      0.01129107	      2.97712846	     -5.01134888	     -7.49999987	      1.78146398	      4.51405387	      4.21161607	     85.42211113	     19.02687404	     56.67294261	    134.35848498	    100.26044721	     91.08917393	      8.73570827	     64.61993963	    127.71688481	     92.49151321
      8.21666670	     -3.91430246	      1.12128993	     -3.20383687	     -0.02220232	      0.93474615	     -0.04741823	      2.42006441	     -2.04799625	     -7.61739062	      0.48876526	      0.00853056	      1.18628237	     -6.83899769	     -7.49999987	      1.77719427	     -2.58098233	     -3.53563843	      0.64408398	      0.01124139	      3.03411282	     -4.66096948	     -7.49999987	      2.24217628	      4.45902431	      4.39374602	     85.72478173	     18.67283085	     56.56169563	    133.56145116	     97.23805286	     91.53633623	      8.55494957	     64.50844487	    127.04152800	     90.17971051
      8.23333330	     -3.51895975	      1.15444450	     -3.24532045	     -0.02487803	      0.93753661	     -0.04805977	      2.08189241	     -2.08962350	     -7.39940350	      0.51943765	      0.00906590	      1.22216160	     -7.16441965	     -7.49999987	      1.46384765	     -2.52056849	     -3.65867382	      0.58564267	      0.01022139	      2.89970961	     -4.87574578	     -7.49999987	      1.43083993	      4.39989618	      4.18087470	     85.97643302	     17.79123244	     57.04798125	    133.69475890	    100.89692006	     92.37951733	      8.03275710	     65.03181092	    126.82725185	     91.63211148
      8.25000000	     -3.61626997	      1.21040361	     -3.24782380	     -0.02510014	      0.94062885	     -0.04666778	      2.25194539	     -2.11899039	     -7.41485628	      0.52601578	      0.00918071	      1.21952773	     -7.14394833	     -7.49999987	      1.64116634	     -2.48125254	     -3.72404047	      0.54016559	      0.00942767	      2.64685720	     -4.91550896	     -7.49999987	      1.35767318	      4.34643028	      3.78834133	     85.59647339	     16.67256566	     57.76577570	    133.92293563	    100.66480161	     92.41132676	      7.41716825	     65.28902712	    126.69737495	     90.92443320
      8.26666670	     -3.64885138	      1.17710458	     -3.13249287	     -0.02621639	      0.93949173	     -0.04632175	      2.29707621	     -2.05128457	     -7.47936993	      0.50821354	      0.00887000	      1.45924686	     -6.86687525	     -7.49999987	      1.76945142	     -2.52626028	     -3.88993025	      0.52552763	      0.00917219	      2.58901549	     -4.75834291	     -7.49999987	      0.97126004	      4.30948820	      4.87079909	     85.94488910	     14.00746825	     56.94549249	    132.86279863	    100.20549607	     93.09623802	      7.92979837	     65.53274970	    126.21484316	     90.92548544
      8.28333330	     -3.68795515	      1.20437468	     -3.10991085	     -0.02555193	      0.93532609	     -0.04660326	      2.36518741	     -2.04323160	     -7.46416992	      0.52652648	      0.00918962	      1.35326366	     -7.05226521	     -7.49999987	      1.84128948	     -2.53168421	     -3.96907144	      0.50910126	      0.00888549	      2.53183584	     -4.47263368	     -7.49999987	      0.90185397	      4.20596596	      4.77757959	     86.25604438	     13.03890867	     56.01216287	    133.12765513	     97.24187209	     93.76074352	      7.69973325	     66.07798619	    125.76416057	     89.18563171
      8.30000000	     -3.74462153	      1.13645790	     -3.11223919	     -0.02674455	      0.93528007	     -0.04547453	      2.44023564	     -1.91142883	     -7.43500522	      0.55724378	      0.00972574	      1.58661350	     -6.91372322	     -7.49999987	      1.92228713	     -2.65022620	     -4.10495148	      0.51694363	      0.00902237	      2.59535284	     -4.31393368	     -7.49999987	      0.68381838	      4.25634671	      5.24339122	     86.72458058	     11.92790557	     55.16889364	    132.27512075	     99.00705330	     94.61610918	      7.43398283	     65.80568319	    125.18643954	     90.94590830
      8.31666670	     -3.77131602	      1.10980002	     -3.03849931	     -0.02765646	      0.93599620	     -0.04508429	      2.49589870	     -1.84607644	     -7.46847041	      0.56647331	      0.00988682	      1.55552673	     -7.01710943	     -7.49999987	      2.02491053	     -2.72239907	     -4.16782693	      0.51911000	      0.00906018	      2.50549992	     -4.22089278	     -7.49999987	      0.56611860	      4.17345309	      6.12055240	     87.33133454	     11.27580575	     54.78890400	    132.85638134	     98.92416390	     95.60514874	      8.23606807	     66.17251027	    124.80358646	     91.57554454
